<?xml version="1.0" encoding="UTF-8"?>
<svg id="Layer_1" xmlns="http://www.w3.org/2000/svg" version="1.1" viewBox="0 0 512 512">
  <!-- Generator: Adobe Illustrator 30.2.1, SVG Export Plug-In . SVG Version: 2.1.1 Build 1)  -->
  <defs>
    <style>
      .st0 {
        fill: #ff790b;
      }

      .st1 {
        fill: #231f20;
      }

      .st2 {
        fill: #189481;
      }
    </style>
  </defs>
  <path class="st0" d="M435.69,160.07996V58.27997c8.71997-2.57996,15.09003-10.65997,15.09003-20.22998,0-11.65002-9.44-21.09998-21.09003-21.09998-9.57001,0-17.65002,6.37-20.22998,15.09998h-83.22003c.57001,1.90002.87,3.90997.87,6s-.29999,4.09998-.87,6h83.22003c.59998,2.03998,1.5,3.95001,2.64996,5.67999l-36.83997,44.12c3.76996,1.62,6.96997,4.31,9.20996,7.69l36.84003-44.12c.77002.34003,1.56.63,2.37.85999v101.79999c-1.19.35004-2.34003.80005-3.44,1.36005-3.65997,1.82001-6.70001,4.69-8.76001,8.20001-.85999,1.44995-1.54999,3.01996-2.02997,4.66998h-37.23004l-.13,12h37.36005c.52997,1.82001,1.31,3.53998,2.29999,5.12l-37.42999,42.03998c-.88-.41998-1.79999-.77997-2.75-1.06l.51996-46.09998h-12l-.51996,45.96997c-.83002.23004-1.64001.51001-2.42004.85004-3.77997,1.58997-7,4.26001-9.26996,7.62-2.29004,3.37-3.62,7.44-3.62,11.82001,0,3.19.70996,6.21997,1.97998,8.92999l-29.09003,25.79999c3.45001,2.15002,6.24005,5.27002,7.97003,8.97998l29.08002-25.79999c.33997.21002.69.41003,1.04999.59998l-10.25,47.71002,11.03998,5.76001,10.94-50.96002c.97003-.07001,1.91998-.20996,2.84003-.40997l44.85999,81.71002c2.46997-2.49005,5.54999-4.37006,9-5.39001.5-.15002,1-.28003,1.52002-.39001,1.44-.32001,2.94-.47998,4.47998-.47998,2.09003,0,4.09998.29999,6,.87v-148.96002c8.71997-2.58002,15.09003-10.65997,15.09003-20.22998s-6.37006-17.65002-15.09003-20.23004ZM365.37,252.57001h-.02002l-.02997-.01001h.03998l.03003-.01001-.02002.02002ZM380.34998,267.39996c3.78003-3.79999,6.11005-9.03998,6.11005-14.82996,0-4.08002-1.16003-7.89001-3.17004-11.12l37.42999-42.04004c.95001.45001,1.94.83002,2.97003,1.13v145.78998l-43.34003-78.92999Z"/>
  <polygon class="st2" points="365.39001 252.54999 365.37 252.57001 365.34998 252.57001 365.32001 252.56 365.35999 252.56 365.39001 252.54999"/>
  <path class="st0" d="M418.21997,387.42999c-3.40997-2.21002-6.14996-5.38-7.81-9.13l-82.97998,80.64001-.29999.28998.08997-.40997,17.64001-82.19-12.34998.38995-12.20001,56.81-3.63-56.31,15.83002-.5,2.59998-12.09998-19.20001.62-12,.38-45.89996,1.46002c-.35004-.90002-.77002-1.77002-1.25-2.60004l39.5-40.85999c-3.62-1.88-6.62-4.78998-8.62-8.34003l-39.5,40.86005c-2.91003-1.53003-6.23004-2.39001-9.73999-2.39001-2.80005,0-5.46002.53998-7.90002,1.53998l-36.23999-45.51996c2.39996-3.41003,3.81-7.58002,3.81-12.08002,0-11.66003-9.44-21.09998-21.09003-21.09998-11.65997,0-21.09998,9.43994-21.09998,21.09998,0,3.01001.63,5.87,1.77002,8.46002l-65.09003,54.94c3.39001,2.22998,6.09998,5.40997,7.73999,9.16998l65.09003-54.94c1.17999.77002,2.45001,1.44,3.77997,1.95996l-4.77997,52.78003,12.07996-.39001,4.65002-51.29999c1.29999-.26001,2.56-.63,3.76001-1.13l36.22998,45.52002c-1.19,1.69-2.14001,3.57001-2.77997,5.58002-.67004,2.04999-1.03003,4.23999-1.03003,6.50995,0,1.91003.25,3.76001.73004,5.51001.67999,2.54999,1.82996,4.90002,3.34998,6.96002l-24.64001,32.41998-7.5,9.85999-20.66998,27.19-.04999.65002c3.70996,1.46997,6.88995,3.96002,9.21997,7.13l22.91003-30.15002,7.5-9.87,22.77997-29.96997c2.32001.88,4.84003,1.35999,7.47003,1.35999,2.66998,0,5.22998-.5,7.57996-1.41003l52.47003,68.12006,1.56,2.02997c-1.38,1.90002-2.45001,4.04999-3.13,6.35999-.34998,1.17999-.59998,2.41003-.73999,3.67004-.09003.76996-.13,1.53998-.13,2.32996,0,2.08002.29999,4.10004.87,6,2.58002,8.73004,10.65997,15.10004,20.22998,15.10004,11.65002,0,21.09003-9.45001,21.09003-21.10004,0-3.52997-.87-6.85999-2.41003-9.78998l82.42999-80.12ZM309.52002,457.64996l-54.03003-70.13995c1.72998-2.38,2.97003-5.15002,3.58002-8.15002l45.60999-1.45001,5.14001,79.62.02997.56-.32996-.44Z"/>
  <path class="st2" d="M309.84998,458.08997l-.32996-.44c.09998-.03998.19995-.07996.29999-.12l.02997.56Z"/>
  <path class="st2" d="M327.42999,458.94l-.29999.28998.08997-.40997c.07001.02997.14001.07001.21002.12Z"/>
  <polygon class="st2" points="80.97998 378.95996 80.97998 379.01001 80.95001 378.97998 80.97998 378.95996"/>
  <path class="st2" d="M414.89001,355.23999l-.35999-.17999c.04999-.06.10999-.12.15997-.16998l.20001.34998Z"/>
  <polygon class="st2" points="429.75 369.70001 429.75 369.72998 429.69 369.72998 429.73999 369.62 429.75 369.70001"/>
  <path class="st2" d="M435.69,349.5c-1.90002-.57001-3.90997-.87-6-.87-1.53998,0-3.03998.15997-4.47998.47998-.52002.10999-1.02002.23999-1.52002.39001-3.45001,1.01996-6.53003,2.89996-9,5.39001l.20001.34998-.35999-.17999-58.48004-30.51001-11.03998-5.76001-2.60999,12.16998-7.29004,33.96002-2.59998,12.09998,12.34998-.38995,64.29999-2.05005c.29004,1.29004.72003,2.54004,1.25,3.72003,1.66003,3.75,4.40002,6.91998,7.81,9.13,3.30005,2.14996,7.24005,3.39001,11.47003,3.39001,11.65002,0,21.09003-9.44,21.09003-21.09003,0-9.57001-6.37006-17.65002-15.09003-20.22998ZM347.46002,364.52997l5.96997-27.81,49.90002,26.03003-55.87,1.77997ZM429.75,369.72998h-.06l.04999-.10999.01001.08002v.02997Z"/>
  <polygon class="st1" points="429.75 369.70001 429.75 369.72998 429.69 369.72998 429.73999 369.62 429.75 369.70001"/>
  <polygon class="st1" points="80.97998 378.95996 80.97998 379.01001 80.95001 378.97998 80.97998 378.95996"/>
  <polygon class="st1" points="80.97998 378.95996 80.97998 379.01001 80.95001 378.97998 80.97998 378.95996"/>
  <path class="st1" d="M168.57001,457.08997l-.04999.65002c-.11005-.04999-.22003-.09998-.34003-.14001l.39001-.51001Z"/>
  <path class="st2" d="M296.88,471.33997c.67999-2.31,1.75-4.45996,3.13-6.35999l-1.56-2.02997-90.29999-38.10004-7.5,9.87,86.79999,36.62h-106.5c-.69-2.35999-1.79004-4.53998-3.21002-6.46997-2.33002-3.16998-5.51001-5.66003-9.21997-7.13-.11005-.04999-.22003-.09998-.34003-.14001l.39001-.51001,3.14001-34.58997,17.52997,7.39996,7.5-9.85999-23.89001-10.08002,2.53003-27.94,42.65002-1.35999c-.48004-1.75-.73004-3.59998-.73004-5.51001,0-2.26996.35999-4.45996,1.03003-6.50995l-41.86005,1.32996-12.07996.39001-63.40002,2.02002c-.19-.62-.42999-1.23004-.69-1.82001-1.64001-3.76001-4.34998-6.94-7.73999-9.16998-3.32001-2.20001-7.29999-3.47003-11.58002-3.47003-11.65997,0-21.09998,9.45001-21.09998,21.09998s9.44,21.10004,21.09998,21.10004c3.28003,0,6.38-.75,9.15002-2.09003l53.32001,67.19c-2.41003,3.42999-3.83002,7.60999-3.83002,12.12,0,11.65002,9.45001,21.10004,21.09998,21.10004,9.56006,0,17.65002-6.37,20.23004-15.10004h115.92999c-.57001-1.89996-.87-3.91998-.87-6,0-.78998.03998-1.56.13-2.32996.14001-1.26001.39001-2.49005.73999-3.67004ZM80.97998,379.01001l-.02997-.03003.02997-.02002v.05005ZM156.57001,456.64996c-1.28998.26001-2.53003.63-3.72003,1.12l-51.56-64.97998,58.82001,24.82001-3.53998,39.03998ZM161.23999,405.06l-49.78998-21,51.84998-1.65002-2.06,22.65002Z"/>
  <path class="st1" d="M168.57001,457.08997l-.04999.65002c-.11005-.04999-.22003-.09998-.34003-.14001l.39001-.51001Z"/>
  <polygon class="st1" points="429.75 369.70001 429.75 369.72998 429.69 369.72998 429.73999 369.62 429.75 369.70001"/>
  <polygon class="st1" points="365.35999 252.56 365.35999 252.57001 365.34998 252.57001 365.32001 252.56 365.35999 252.56"/>
  <polygon class="st1" points="365.39001 252.54999 365.37 252.57001 365.35999 252.57001 365.35999 252.56 365.39001 252.54999"/>
  <polygon class="st1" points="429.75 369.70001 429.69 369.72998 429.73999 369.62 429.75 369.70001"/>
  <polygon class="st1" points="429.75 369.70001 429.75 369.72998 429.69 369.72998 429.73999 369.62 429.75 369.70001"/>
  <polygon class="st1" points="365.39001 252.54999 365.37 252.57001 365.34998 252.57001 365.32001 252.56 365.35999 252.56 365.39001 252.54999"/>
  <path class="st2" d="M385.10999,123.88c1.85004-3.13,2.90002-6.77002,2.90002-10.67004,0-4.31995-1.29999-8.32996-3.53003-11.66998-2.23999-3.38-5.44-6.07001-9.20996-7.69-2.56-1.12-5.39001-1.72998-8.36005-1.72998-3.03998,0-5.91998.64001-8.51996,1.79999l-35.06-43.82001c1.27997-1.83002,2.26996-3.85999,2.90997-6.04999.57001-1.90002.87-3.90997.87-6s-.29999-4.09998-.87-6c-2.58002-8.72998-10.65997-15.09998-20.22998-15.09998-11.65002,0-21.10004,9.44995-21.10004,21.09998,0,9.57001,6.37006,17.65002,15.10004,20.22998v101.79999c-8.72998,2.58002-15.10004,10.66003-15.10004,20.23004s6.37006,17.64996,15.10004,20.22998v84.45001c-8.72998,2.58002-15.10004,10.65002-15.10004,20.21997,0,3.77002.99005,7.31,2.73004,10.37,2,3.55005,5,6.46002,8.62,8.34003,1.58002.83002,3.27997,1.46002,5.06,1.85999l2.58997,40.14001,12-.38-2.60999-40.52002c3-1.10999,5.67999-2.87,7.85999-5.12994l21.24005,11.06995,2.60999-12.16998-18.29004-9.53998c.26001-1.31.39001-2.66003.39001-4.04004,0-3.19-.70996-6.21997-1.97998-8.92999-1.72998-3.70996-4.52002-6.82996-7.97003-8.97998-1.58997-.98999-3.31995-1.77002-5.14996-2.31v-84.45001c.75-.21997,1.48999-.47998,2.20001-.78998l33.67999,41c2.26996-3.35999,5.48999-6.03003,9.26996-7.62l-33.66998-40.98999c1.20001-1.77002,2.13-3.73004,2.75-5.83002h45.85999l.13-12,.46002-40.81c1.27997-.35004,2.5-.83002,3.65997-1.42004l35.14001,37.56006c2.06-3.51001,5.10004-6.38,8.76001-8.20001l-35.14001-37.56ZM315.16998,161.29999c-1.01001-.48999-2.07001-.90002-3.15997-1.22003V58.27997c.66998-.19,1.32001-.41998,1.95001-.67999l35.27997,44.10004c-2.15997,3.29999-3.41998,7.25995-3.41998,11.50995,0,4.01001,1.12,7.76001,3.06,10.95001l-33.71002,37.14001ZM360.22998,174.31h-33.98999c-.52002-1.76001-1.26001-3.42999-2.19-4.96002l33.70001-37.13c.95001.46002,1.92999.85004,2.94,1.16003l-.46002,40.92999Z"/>
  <polygon class="st1" points="365.39001 252.54999 365.37 252.57001 365.35999 252.57001 365.35999 252.56 365.39001 252.54999"/>
  <polygon class="st1" points="365.39001 252.54999 365.37 252.57001 365.34998 252.57001 365.34998 252.56 365.35999 252.56 365.39001 252.54999"/>
</svg>